<svg width="41" height="41" viewBox="0 0 41 41" fill="none" xmlns="http://www.w3.org/2000/svg">
<path d="M7.57837 16.8337V26.3244C7.57837 27.8585 8.82202 29.1022 10.3561 29.1022H29.8006C31.3347 29.1022 32.5784 27.8585 32.5784 26.3244V16.8337C32.5784 15.2995 31.3347 14.0559 29.8006 14.0559H28.3507C27.8169 14.0559 27.3091 13.8256 26.9575 13.424L25.0236 11.2155C24.6719 10.814 24.1641 10.5837 23.6304 10.5837H16.1885C15.6548 10.5837 15.147 10.814 14.7953 11.2155L12.8614 13.424C12.5098 13.8256 12.002 14.0559 11.4682 14.0559H10.3561C8.82202 14.0559 7.57837 15.2995 7.57837 16.8337Z" stroke="#898989" stroke-width="2" stroke-linecap="round" stroke-linejoin="round"/>
<circle cx="20.0784" cy="20.306" r="4.16667" stroke="#898989" stroke-width="2"/>
</svg>
