<svg width="350" height="54" viewBox="0 0 350 54" fill="none" xmlns="http://www.w3.org/2000/svg">
<path d="M39.7356 31.1555C41.2732 29.5871 42.2213 27.4385 42.2213 25.0686C42.2213 20.2661 38.3281 16.3729 33.5256 16.3729C28.7232 16.3729 24.83 20.2661 24.83 25.0686C24.83 29.8711 28.7232 33.7642 33.5256 33.7642C35.9582 33.7642 38.1574 32.7654 39.7356 31.1555ZM39.7356 31.1555L44.83 36.3729" stroke="#898989" stroke-width="2.02054" stroke-linecap="round"/>
<path d="M66.0268 25.08C66.0268 23.4 67.3708 22.294 69.3868 22.294C71.1928 22.294 72.3828 23.302 72.5368 24.982H71.5148C71.4028 23.848 70.6328 23.204 69.3728 23.204C67.9588 23.204 67.0348 23.932 67.0348 25.066C67.0348 25.948 67.5528 26.508 68.6028 26.774L70.3248 27.194C71.8928 27.572 72.7048 28.468 72.7048 29.826C72.7048 31.562 71.3608 32.668 69.2888 32.668C67.3428 32.668 66.0268 31.646 65.9008 30.008H66.9368C66.9928 31.058 67.9168 31.744 69.2888 31.744C70.7588 31.744 71.6968 31.03 71.6968 29.882C71.6968 28.986 71.1928 28.398 70.1148 28.146L68.4208 27.726C66.8528 27.348 66.0268 26.452 66.0268 25.08ZM77.5695 32.668C75.5815 32.668 74.2515 31.24 74.2515 29.112C74.2515 26.998 75.5675 25.542 77.4995 25.542C79.3335 25.542 80.5795 26.844 80.5795 28.762V29.238H75.1895C75.2595 30.89 76.1275 31.842 77.5835 31.842C78.6895 31.842 79.4035 31.366 79.6555 30.47H80.5795C80.2155 31.898 79.1655 32.668 77.5695 32.668ZM77.4995 26.368C76.2255 26.368 75.3855 27.208 75.2175 28.538H79.6135C79.6135 27.236 78.7735 26.368 77.4995 26.368ZM84.4216 32.668C82.9796 32.668 82.1256 31.856 82.1256 30.666C82.1256 29.42 83.0776 28.636 84.6596 28.51L86.8996 28.328V28.104C86.8996 26.774 86.1016 26.354 85.1076 26.354C83.9316 26.354 83.2316 26.886 83.2316 27.796H82.3496C82.3496 26.424 83.4696 25.542 85.1356 25.542C86.7036 25.542 87.8516 26.326 87.8516 28.118V32.5H87.0396L86.9136 31.31C86.4936 32.164 85.5696 32.668 84.4216 32.668ZM84.6456 31.884C86.0736 31.884 86.8996 30.89 86.8996 29.42V29.056L84.8976 29.21C83.6236 29.322 83.1056 29.882 83.1056 30.638C83.1056 31.464 83.7216 31.884 84.6456 31.884ZM93.7521 25.64V26.508H93.2201C91.9741 26.508 91.1761 27.348 91.1761 28.636V32.5H90.2101V25.724H91.1201L91.1901 26.774C91.4561 26.046 92.1701 25.57 93.1221 25.57C93.3321 25.57 93.5141 25.584 93.7521 25.64ZM94.7205 29.126C94.7205 26.998 96.0225 25.542 97.9965 25.542C99.5645 25.542 100.712 26.452 100.978 27.852H100.012C99.7605 26.914 98.9485 26.396 98.0105 26.396C96.6385 26.396 95.6725 27.446 95.6725 29.112C95.6725 30.722 96.5685 31.8 97.9405 31.8C98.9485 31.8 99.7605 31.24 100.026 30.372H101.006C100.684 31.758 99.4805 32.668 97.9405 32.668C96.0225 32.668 94.7205 31.254 94.7205 29.126ZM103.856 32.486H102.89V22.294H103.856V26.9C104.29 26.088 105.116 25.542 106.25 25.542C108.028 25.542 108.826 26.648 108.826 28.356V32.5H107.86V28.566C107.86 26.984 107.118 26.424 106.068 26.424C104.612 26.424 103.856 27.502 103.856 28.804V32.486Z" fill="#898989"/>
</svg>
